<svg width="309" height="41" viewBox="0 0 309 41" fill="none" xmlns="http://www.w3.org/2000/svg">
<path d="M13.6103 6.17724C13.6103 6.17724 43.5167 1.13 40.1795 22.4217C35.9866 41.8472 19.215 35.2731 18.7016 32.0072C18.1882 28.8686 19.3006 25.0514 18.7444 22.1248L18.616 21.5734C18.1026 19.6648 16.6908 18.2228 13.3108 17.8834V17.7138C24.6059 17.0776 29.4406 16.4414 29.2694 20.089C29.2266 21.0221 28.7988 21.9552 28.157 22.761C26.2317 25.3059 23.1084 27.4266 20.7125 29.7169C18.9583 31.371 17.7176 33.619 22.595 30.6924C22.595 30.6924 34.3608 23.27 37.2701 20.4283C40.479 17.3321 42.9605 13.7269 13.653 16.5262L13.6103 6.17724ZM54.601 6.17724L72.1856 6.26207L72.1428 6.55896C63.5859 8.51 67.9071 18.9438 67.4793 26.6207C67.1798 31.3286 65.1689 35.4428 59.0078 35.4428C42.5357 35.4428 40.0114 6.09241 40.0114 6.09241H51.9055C54.0875 29.7593 64.2276 30.0138 64.2276 30.0138C67.3509 30.1834 67.2226 25.7724 65.2545 23.5245C62.6018 20.4283 54.9432 13.7693 54.601 6.17724ZM74.273 11.8183C71.1925 11.6486 71.3208 16.0597 73.2462 18.3076C75.9416 21.3614 83.6 28.19 83.8995 35.7821H67.5558L67.6414 35.4852C76.1555 33.5341 70.6363 22.8883 71.0641 15.169C71.3208 10.461 73.3745 6.38931 79.4927 6.38931C95.9648 6.38931 98.5319 35.6972 98.5319 35.6972H86.6377C84.4557 12.0303 74.273 11.8183 74.273 11.8183Z" fill="#1423DC"/>
<path d="M118.452 21.0033L112.907 12.7241H116.376L118.407 15.6874C119.091 16.7054 119.662 17.6554 120.278 18.7865L124.157 12.7241H127.557L122.103 20.9807L127.58 29.2598H124.134L122.263 26.5227C121.533 25.4143 120.94 24.419 120.278 23.2201L116.216 29.2598H112.793L118.452 21.0033Z" fill="#1423DC"/>
<mask id="mask0_15_67" style="mask-type:luminance" maskUnits="userSpaceOnUse" x="141" y="5" width="155" height="31">
<path d="M295.391 5.18396H141.841V35.8161H295.391V5.18396Z" fill="white"/>
</mask>
<g mask="url(#mask0_15_67)">
<path d="M185.215 10.7476C188.378 10.7476 191.024 13.1777 191.024 16.0555V34.665C191.024 35.2406 191.54 35.6882 192.121 35.6243H196.058C196.639 35.6243 197.156 35.2406 197.156 34.665V16.0555C197.091 10.0441 191.799 5.18395 185.215 5.18395H172.565C171.984 5.18395 171.532 5.69555 171.597 6.27111V34.6011C171.597 35.1766 171.984 35.6882 172.565 35.6882H176.76C177.341 35.6882 177.793 35.1766 177.728 34.6011V10.7476H185.215ZM150.814 10.7476H166.95C167.53 10.7476 167.982 10.3639 168.047 9.78839V6.14321C168.047 5.56765 167.53 5.18395 167.014 5.18395H150.685C146.167 5.18395 142.423 8.50938 142.423 12.6661V28.1421C142.423 32.2989 146.102 35.6882 150.685 35.6882H166.95C167.53 35.6882 167.982 35.3045 168.047 34.729V31.0838C168.047 30.5082 167.53 30.1245 166.95 30.1245H150.814C149.652 30.1245 148.684 29.2293 148.619 28.0782V23.7935H158.301C158.881 23.7935 159.334 23.4098 159.398 22.8342V19.253C159.398 18.6775 158.881 18.2938 158.301 18.2938H148.619V12.6661C148.619 11.6429 149.652 10.7476 150.814 10.7476ZM294.744 25.1364V24.2411C294.421 20.8517 290.872 18.2938 287.193 18.2938H277.769C276.22 18.2298 274.994 16.9508 275.058 15.416V13.3696C275.123 11.8348 276.414 10.6197 277.963 10.6837H290.807C291.259 10.6837 291.646 10.4278 291.839 10.0441C291.904 9.91624 291.904 9.85229 291.904 9.72444V6.14321C291.904 5.56765 291.388 5.12 290.807 5.18395H276.478C272.283 5.18395 268.863 8.31753 268.863 12.1545V16.5032C268.863 20.6599 272.025 23.9853 275.897 23.9853H285.902C287.451 24.0493 288.613 25.3283 288.548 26.8631V27.5666C288.483 29.1014 287.193 30.3164 285.644 30.2524H269.96C269.508 30.2524 269.121 30.5082 268.927 30.9559C268.863 31.0838 268.863 31.1477 268.863 31.2756V34.8569C268.863 35.4324 269.379 35.8801 269.96 35.8161H287.193C291.388 35.8161 294.744 32.6826 294.744 28.8456V25.1364ZM244.594 5.18395H231.234C230.653 5.2479 230.202 5.69555 230.266 6.27111V24.1772C230.266 24.7527 230.653 25.2643 231.234 25.2643H235.429C236.01 25.2643 236.462 24.7527 236.397 24.1772V10.7476H243.949C247.111 10.7476 249.758 13.1138 249.758 16.0555V25.8399C249.758 28.7816 247.176 30.1245 243.949 30.1245H230.33V35.6882H243.949C250.532 35.6882 255.825 31.8512 255.825 25.9038V15.9915C255.696 9.9802 250.726 5.12 244.594 5.18395Z" fill="#1423DC"/>
<path d="M212.452 30.1246C209.289 30.1246 206.643 27.7584 206.643 24.8167V23.8574H218.971C223.231 23.8574 226.716 20.66 226.716 16.759V12.2185C226.716 8.38149 223.295 5.18396 219.035 5.18396H208.321C207.741 5.18396 207.095 5.18396 206.514 5.31186C203.093 5.95137 200.641 8.89309 200.576 12.2824V14.9684C200.576 15.5439 200.963 16.0555 201.544 16.0555H205.74C206.321 15.9916 206.772 15.5439 206.708 14.9684V13.3056C206.772 11.8987 207.999 10.7476 209.419 10.8116H217.874C219.294 10.7476 220.52 11.8348 220.584 13.3056V15.9916C220.52 17.3985 219.294 18.5496 217.874 18.4856H197.091V24.0493H200.641V25.0085C200.641 31.0199 205.998 35.8161 212.517 35.8161H230.266V30.2525L212.452 30.1246Z" fill="#1423DC"/>
<path d="M265.442 24.369V14.2009C265.442 13.6254 265.054 13.1138 264.473 13.1138H260.278C259.697 13.1138 259.246 13.6254 259.31 14.2009V34.6011C259.31 35.1766 259.697 35.6882 260.278 35.6882H264.473C265.054 35.6882 265.506 35.1766 265.442 34.6011V24.369ZM265.442 7.48618V6.27112C265.442 5.69556 265.054 5.18396 264.473 5.18396H260.278C259.697 5.18396 259.246 5.69556 259.31 6.27112V9.6605C259.31 10.2361 259.697 10.7476 260.278 10.7476H264.473C265.054 10.7476 265.506 10.2361 265.442 9.6605V7.48618Z" fill="#1423DC"/>
</g>
</svg>
