<svg width="70" height="65" viewBox="0 0 70 65" fill="none" xmlns="http://www.w3.org/2000/svg">
<path d="M32.3131 52.9228C25.6604 52.9228 20.0939 47.9019 20.0939 41.6597V39.6242H46.0258C54.9866 39.6242 62.3182 32.8393 62.3182 24.5616V14.9269C62.3182 6.78497 55.1224 0 46.1616 0H23.6239C22.402 0 21.0443 0 19.8223 0.271399C12.6266 1.62839 7.46732 7.87056 7.33155 15.0626V20.762C7.33155 21.9833 8.14617 23.0689 9.36809 23.0689H18.1931C19.415 22.9332 20.3654 21.9833 20.2296 20.762V17.2338C20.3654 14.2484 22.945 11.8058 25.932 11.9415H43.7178C46.7047 11.8058 49.2843 14.1127 49.4201 17.2338V22.9332C49.2843 25.9186 46.7047 28.3612 43.7178 28.2255H0V40.0313H7.46732V42.0668C7.46732 54.8225 18.7362 65 32.4489 65H69.7855V53.1942L32.3131 52.9228Z" fill="#93C90E"/>
</svg>
